<svg xmlns="http://www.w3.org/2000/svg" viewBox="0 0 64 64" role="img" aria-label="Abrigo">
  <rect width="64" height="64" rx="14" fill="#2563eb"/>
  <path fill="#fff" d="M32 49 16.6 35.2c-5.1-4.6-5.4-12.4-.7-17.1 4.2-4.2 11-4.2 15.1 0l1 1 1-1c4.2-4.2 10.9-4.2 15.1 0 4.7 4.7 4.4 12.5-.7 17.1L32 49Z"/>
  <circle cx="24" cy="29" r="3.2" fill="#2563eb"/>
  <circle cx="40" cy="29" r="3.2" fill="#2563eb"/>
  <path fill="#2563eb" d="M26.8 36.8c2.7 2.4 7.7 2.4 10.4 0 .9-.8 2.2.4 1.3 1.3-3.4 3.3-9.7 3.3-13 0-.9-.9.4-2.1 1.3-1.3Z"/>
</svg>
